<?xml version="1.0" encoding="utf-8"?>
<svg width="512" height="512" fill="purple" version="1.1" viewBox="0 0 500 500" xmlns="http://www.w3.org/2000/svg">
  <g transform="matrix(0.997555, 0, 0, 1, 273.208771, 2.754225)">
    <title>coin-back</title>
    <ellipse ry="204" rx="204.5" id="svg_5" cy="248.211" cx="-25.513" style="stroke: rgb(0, 0, 0); stroke-width: 3.00367px;"/>
  </g>
  <ellipse style="fill: rgb(82, 197, 168);" cx="247.758" cy="250.965" rx="176.881" ry="181.808">
    <title>coin-back</title>
  </ellipse>
  <path style="fill-opacity: 1; stroke-linecap: butt; stroke-linejoin: miter; stroke-opacity: 1; stroke: rgb(0, 0, 0); stroke-width: 2px;" id="path-1" d="M 224.997 323.441 C 202.186 320.923 184.987 300.718 179.368 278.704 C 171.998 251.121 176.659 218.36 197.843 198.34 C 205.266 191.131 213.879 184.848 223.766 181.884 C 223.766 181.884 212.836 145.273 223.766 133.987 C 234.6 122.803 258.894 122.803 269.727 133.987 C 280.658 145.273 269.727 181.884 269.727 181.884 C 283.178 188.276 305.567 191.645 307.07 206.889 C 308.494 221.298 290.892 234.69 277.114 237.402 C 268.561 239.086 262.427 226.436 253.069 226.857 C 235.952 224.684 221.889 243.608 225.458 260.292 C 227.223 275.739 242.901 288.574 257.929 284.127 C 267.795 284.338 272.487 268.665 281.498 269.936 C 294.778 271.805 310.921 285.938 309.533 299.708 C 308.085 314.076 288.618 320.199 274.703 323.888 C 268.69 323.795 271.653 330.457 270.958 334.365 C 270.958 334.365 278.622 360.026 270.958 367.943 C 260.125 379.128 235.831 379.128 224.997 367.943 C 214.84 357.449 224.997 323.441 224.997 323.441 Z">
    <title>coin-back</title>
  </path>
</svg>