<?xml version="1.0" encoding="utf-8"?>
<svg version="1.1" id="Layer_1" x="0px" y="0px" viewBox="0 0 500 500" style="enable-background:new 0 0 397.7 311.7;" xmlns="http://www.w3.org/2000/svg">
  <style type="text/css">
	.st0{fill:url(#SVGID_1_);}
	.st1{fill:url(#SVGID_2_);}
	.st2{fill:url(#SVGID_3_);}
</style>
  <g transform="matrix(0.997555, 0, 0, 1, 273.208771, 2.754225)">
    <title>coin-back</title>
    <ellipse ry="204" rx="204.5" id="svg_5" cy="248.211" cx="-25.513" style="stroke: rgb(0, 0, 0); fill:purple; stroke-width: 3.00367px;"/>
  </g>
  <ellipse style="fill: rgb(82, 197, 168);" cx="247.758" cy="250.965" rx="176.881" ry="181.808">
    <title>coin-back</title>
  </ellipse>
  <g id="layer1" transform="matrix(1.647071, 0, 0, 1.622837, 77.057541, 9.008689)" style="">
    <g id="g11993" transform="translate(0.01320793,-14.655723)">
      <g id="g1344">
        <g id="g1649" transform="matrix(1.531307, 0, 0, 1.495783, -24.205503, -432.606628)" style="">
          <g transform="matrix(0.5393018,0,0,-0.5393018,82.412681,467.15637)" id="g36" style="visibility: hidden;">
            <path id="path38" style="fill-opacity: 1; fill-rule: nonzero; fill: purple; stroke: rgb(82, 197, 168);" d="m 0,0 c 8.835,-0.006 14.728,0.371 20.568,1.281 7.189,1.118 14.236,2.827 21.089,5.313 10.326,3.744 19.864,8.916 28.523,15.672 7.274,5.675 13.805,12.123 19.752,19.177 9.216,10.934 16.648,22.929 21.852,36.278 4.032,10.342 6.342,21.044 6.9,32.132 0.268,5.345 -0.072,10.66 -0.723,15.958 -0.484,3.941 -1.09,7.868 -2.03,11.729 -3.161,12.988 -8.105,25.242 -15.069,36.682 -4.443,7.3 -9.572,14.087 -15.341,20.361 -6.852,7.454 -14.447,14.1 -22.721,19.968 -9.025,6.401 -18.647,11.676 -28.973,15.652 -4.978,1.918 -10.047,3.554 -15.251,4.775 -4.205,0.985 -8.45,1.744 -12.727,2.268 -3.375,0.414 -6.768,0.734 -10.182,0.797 -6.032,0.11 -12.017,-0.303 -17.98,-1.233 -6.976,-1.088 -13.765,-2.854 -20.398,-5.254 -10.651,-3.854 -20.387,-9.388 -29.495,-16.063 -1.922,-1.408 -3.772,-2.914 -5.63,-4.405 -0.34,-0.273 -0.727,-0.658 -0.809,-1.051 -0.397,-1.889 -1.672,-3.183 -2.884,-4.535 -1.968,-2.198 -3.984,-4.356 -5.884,-6.611 -10.496,-12.457 -18.509,-26.315 -23.667,-41.803 -3.616,-10.859 -5.441,-21.995 -5.587,-33.425 -0.075,-5.918 0.516,-11.791 1.333,-17.632 1.245,-8.893 3.279,-17.609 6.421,-26.05 1.821,-4.892 3.734,-9.744 6.059,-14.422 3.544,-7.13 7.681,-13.896 12.429,-20.292 6.338,-8.539 13.781,-15.973 22.308,-22.314 10.013,-7.447 21.052,-12.929 32.88,-16.846 C -22.852,2.006 -10.116,0.051 0,0 m -1.456,-11.743 c -5.518,0.09 -12.075,0.598 -18.598,1.572 -4.942,0.736 -9.838,1.695 -14.683,2.914 -5.511,1.387 -10.896,3.162 -16.158,5.289 -6.001,2.427 -11.831,5.232 -17.373,8.595 -5.151,3.126 -10.045,6.608 -14.607,10.555 -10.935,9.457 -19.72,20.644 -26.908,33.142 -4.712,8.192 -8.577,16.757 -11.613,25.698 -1.826,5.378 -3.218,10.876 -4.379,16.43 -1.28,6.117 -1.947,12.306 -2.355,18.548 -0.431,6.599 -0.119,13.16 0.377,19.72 0.247,3.271 0.841,6.523 1.402,9.762 0.951,5.482 2.22,10.891 3.977,16.177 2.798,8.419 6.282,16.528 10.752,24.214 4.409,7.58 9.499,14.667 15.241,21.28 3.124,3.599 6.398,7.07 9.877,10.336 0.413,0.388 0.842,0.762 1.286,1.113 0.914,0.72 1.946,1.251 3.123,1.155 1.147,-0.093 1.917,0.465 2.733,1.115 2.66,2.124 5.299,4.279 8.039,6.299 9.095,6.706 18.953,12.036 29.51,16.064 6.484,2.473 13.149,4.254 20.004,5.392 9.015,1.496 18.068,1.716 27.157,1.159 3.741,-0.228 7.459,-0.733 11.144,-1.402 4.353,-0.79 8.683,-1.699 12.937,-2.935 6.766,-1.967 13.343,-4.427 19.738,-7.392 13.097,-6.077 24.783,-14.244 35.354,-24 11.514,-10.626 21.187,-22.75 28.638,-36.558 6.02,-11.154 10.283,-22.96 12.566,-35.458 1.184,-6.491 1.761,-13.023 1.835,-19.622 0.069,-6.266 -0.454,-12.476 -1.436,-18.641 -1.02,-6.393 -2.645,-12.652 -4.77,-18.776 C 118.969,73.127 116.091,66.463 112.54,60.113 108.937,53.671 104.955,47.461 100.46,41.595 95.689,35.37 90.508,29.506 84.922,23.997 80.551,19.685 75.843,15.769 70.965,12.049 63.986,6.727 56.462,2.305 48.539,-1.435 43.608,-3.762 38.468,-5.568 33.237,-7.115 26.798,-9.02 20.22,-10.257 13.556,-10.978 8.931,-11.478 4.28,-11.773 -1.456,-11.743"/>
          </g>
          <g transform="matrix(0.5393018,0,0,-0.5393018,113.54418,421.88346)" id="g104" style="">
            <path style="paint-order: stroke; fill: rgb(128, 0, 128); stroke: rgb(10, 9, 10); stroke-width: 5.23802px;" d="M -125.441 31.165 C -86.47 31.165 -38.244 33.059 0.681 31.165 C 6.389 30.887 31.28 33.611 34.985 27.903 C 40.175 19.909 23.573 2.381 19.099 -3.707 C 2.351 -26.495 -16.156 -35.132 -40.427 -34.483 C -53.526 -34.132 -69.127 -31.979 -81.823 -27.935 C -100.426 -22.01 -114.295 3.71 -123.838 20.812 C -130.059 31.96 -123.508 36.324 -124.88 22.593"/>
          </g>
          <g transform="matrix(0.558765, 0, 0, -0.437124, 107.429779, 381.807526)" id="g108" style="">
            <path id="path110" style="fill-opacity: 1; fill-rule: nonzero; stroke: none;" d="m 0,0 c -1.013,0.122 -2.03,0.212 -3.037,0.371 -5.565,0.88 -11.062,0.585 -16.523,-0.794 -2.314,-0.584 -4.577,-1.288 -6.794,-2.167 -0.836,-0.331 -1.712,-0.615 -2.596,-0.762 -1.581,-0.261 -2.926,0.843 -3.12,2.407 -0.19,1.524 0.085,2.96 0.927,4.226 0.751,1.13 1.589,2.21 2.458,3.254 4.012,4.811 8.546,9.081 13.547,12.848 6.453,4.862 13.383,8.935 20.721,12.315 0.926,0.426 1.865,0.826 2.821,1.176 0.414,0.152 0.885,0.185 1.333,0.199 0.883,0.03 1.775,-0.755 1.906,-1.636 0.316,-2.125 -0.498,-3.78 -2.206,-4.989 C 8.702,25.928 7.866,25.545 7.06,25.133 1.797,22.44 -3.199,19.324 -7.909,15.754 c -1.175,-0.89 -2.337,-1.798 -3.468,-2.742 -2.099,-1.753 -2.494,-2.236 -2.133,-2.416 0.987,-0.493 1.981,-0.085 2.964,0.009 5.004,0.483 9.968,0.171 14.906,-0.696 C 4.807,9.831 5.254,9.746 5.69,9.628 6.811,9.326 7.573,8.243 7.462,7.051 7.41,6.494 7.296,5.929 7.107,5.403 6.52,3.76 5.48,2.438 4.105,1.365 2.896,0.423 1.564,-0.111 0,0"/>
          </g>
          <g transform="matrix(0.5393018,0,0,-0.5393018,53.101818,379.68676)" id="g112">
            <path id="path114" style="fill-opacity: 1; fill-rule: nonzero; stroke: none;" d="m 0,0 c -2.749,0.731 -5.556,1.124 -8.352,1.547 -3.7,0.56 -7.415,1.018 -11.124,1.519 -0.112,0.016 -0.225,0.026 -0.337,0.042 -2.305,0.349 -2.956,1.991 -1.559,3.923 0.709,0.983 1.616,1.557 2.872,1.509 1.7,-0.065 3.406,-0.047 5.103,-0.17 C -7.853,7.971 -2.32,7.457 3.195,6.738 7.698,6.15 12.157,5.347 16.595,4.399 c 1.33,-0.284 2.654,-0.6 3.97,-0.943 0.545,-0.143 1.09,-0.342 1.584,-0.608 0.75,-0.407 1.194,-1.083 1.125,-1.947 C 23.223,0.237 23.117,-0.468 22.84,-1.063 21.674,-3.567 19.79,-5.17 17.027,-5.838 10.636,-7.383 4.271,-9.044 -2.104,-10.652 c -3.848,-0.971 -7.698,-1.936 -11.548,-2.894 -0.548,-0.137 -1.105,-0.265 -1.664,-0.319 -1.103,-0.107 -2.186,0.828 -2.434,1.951 -0.455,2.058 0.721,5.135 3.029,6.35 0.6,0.315 1.242,0.554 1.88,0.789 3.726,1.369 7.471,2.676 11.321,3.662 0.43,0.11 0.855,0.278 1.24,0.495 C -0.131,-0.534 -0.101,-0.239 0,0"/>
          </g>
          <g transform="matrix(0.714989, 0, 0, 0.313547, 87.513412, 354.233032)" id="g116" style="">
            <path id="path118" style="fill-opacity: 1; fill-rule: nonzero; fill: purple; stroke: rgb(0, 0, 0); stroke-width: 2.09521px;" d="m 0,0 c -0.043,2.162 0.807,4.012 2.658,5.441 3.85,2.974 7.65,6.015 11.727,8.679 2.655,1.735 5.441,3.236 8.422,4.349 0.634,0.236 1.281,0.445 1.93,0.638 1.469,0.439 2.74,-0.031 3.686,-1.114 1.891,-2.165 2.613,-4.724 2.079,-7.57 C 30.31,9.398 29.765,8.525 28.843,7.958 28.362,7.662 27.869,7.383 27.365,7.129 24.32,5.591 21.528,3.671 18.896,1.516 15.745,-1.063 12.618,-3.673 9.471,-6.257 8.772,-6.83 8.062,-7.397 7.307,-7.892 5.901,-8.811 4.17,-8.663 2.933,-7.489 2.366,-6.952 1.84,-6.326 1.459,-5.649 0.502,-3.95 -0.034,-2.114 0,0"/>
          </g>
          <g transform="matrix(0.5393018,0,0,-0.5393018,70.829812,363.9501)" id="g120">
            <path id="path122" style="fill-opacity: 1; fill-rule: nonzero; fill: purple; stroke: rgb(0, 0, 0); stroke-width: 2.09521px;" d="M 2.373 8.952 C 2.357 9.016 2.373 9.355 2.181 9.662 C 1.027 11.499 -1.246 12.831 -5.048 13.439 C -6.222 13.626 -7.378 13.58 -8.399 13.236 C -9.22 12.961 -10.021 12.658 -10.726 12.313 C -13.448 10.982 -16.154 9.645 -18.818 8.288 C -23.461 5.924 -28.227 3.631 -33.788 1.781 C -34.201 1.644 -34.575 1.478 -34.955 1.32 C -35.782 0.975 -36.063 0.5 -36.085 0 C -36.101 -0.32 -35.98 -0.662 -35.755 -0.964 C -34.741 -2.345 -32.845 -3.336 -30.137 -3.945 C -29.03 -4.192 -27.858 -4.197 -26.718 -4.017 C -25.929 -3.894 -25.174 -3.709 -24.416 -3.539 C -18.312 -2.167 -12.725 -0.39 -7.718 1.813 C -4.217 3.351 -1.251 5.123 1.256 7.078 C 1.888 7.574 2.376 8.087 2.373 8.952"/>
          </g>
        </g>
      </g>
    </g>
  </g>
</svg>