<?xml version="1.0" encoding="utf-8"?>
<svg version="1.1" id="Layer_1" x="0px" y="0px" viewBox="0 0 500 500" style="enable-background:new 0 0 397.7 311.7;" xmlns="http://www.w3.org/2000/svg">
  <style type="text/css">
	.st0{fill:url(#SVGID_1_);}
	.st1{fill:url(#SVGID_2_);}
	.st2{fill:url(#SVGID_3_);}
</style>
  <g transform="matrix(0.997555, 0, 0, 1, 273.208771, 2.754225)">
    <title>coin-back</title>
    <ellipse ry="204" rx="204.5" id="svg_5" cy="248.211" cx="-25.513" style="stroke: rgb(0, 0, 0); fill:purple; stroke-width: 3.00367px;"/>
  </g>
  <ellipse style="fill: rgb(82, 197, 168);" cx="247.758" cy="250.965" rx="176.881" ry="181.808">
    <title>coin-back</title>
  </ellipse>
  <path d="M 241.283 80.479 C 156.676 80.479 87.841 149.403 87.841 234.123 C 87.841 287.087 114.747 333.879 155.591 361.517 L 155.527 361.622 L 160.631 364.793 C 160.794 364.898 160.965 364.977 161.13 365.082 C 163.792 366.723 166.511 368.272 169.273 369.752 C 169.879 370.078 170.501 370.379 171.114 370.699 C 173.476 371.921 175.882 373.083 178.315 374.19 C 178.914 374.459 179.5 374.736 180.1 375.001 C 183.09 376.31 186.123 377.539 189.206 378.658 C 189.291 378.688 189.384 378.713 189.47 378.749 C 192.424 379.813 195.429 380.765 198.462 381.651 C 199.048 381.823 199.632 381.989 200.219 382.148 C 203.237 382.99 206.285 383.759 209.375 384.416 C 209.474 384.434 209.575 384.465 209.674 384.483 C 212.886 385.16 216.14 385.725 219.43 386.192 C 220.066 386.285 220.701 386.352 221.329 386.432 C 223.906 386.77 226.504 387.041 229.122 387.249 C 229.957 387.318 230.792 387.391 231.627 387.44 C 234.824 387.63 238.036 387.765 241.283 387.765 C 245.766 387.765 250.184 387.532 254.565 387.151 C 254.994 387.114 255.422 387.096 255.843 387.053 C 260.139 386.647 264.378 386.038 268.568 385.282 C 269.025 385.203 269.475 385.122 269.93 385.037 C 274.148 384.238 278.302 383.255 282.392 382.118 C 282.799 382.007 283.199 381.89 283.605 381.774 C 287.751 380.581 291.827 379.23 295.823 377.699 C 296.166 377.57 296.502 377.428 296.843 377.299 C 300.906 375.713 304.887 373.98 308.77 372.07 C 309.034 371.941 309.298 371.793 309.562 371.664 C 313.529 369.678 317.413 367.552 321.18 365.248 C 321.33 365.155 321.48 365.05 321.63 364.959 C 325.485 362.574 329.238 360.036 332.864 357.332 C 332.906 357.3 332.957 357.271 332.999 357.233 C 336.617 354.523 340.101 351.635 343.469 348.623 C 343.619 348.488 343.784 348.378 343.934 348.243 L 347.287 345.213 L 347.23 345.114 C 376.456 317.126 394.726 277.733 394.726 234.123 C 394.726 149.403 325.891 80.479 241.283 80.479 Z M 102.116 234.123 C 102.116 156.182 164.549 92.77 241.283 92.77 C 318.019 92.77 380.452 156.182 380.452 234.123 C 380.452 273.093 364.844 308.425 339.651 334.022 C 336.896 331.268 333.691 328.988 330.037 327.402 L 296.587 312.579 C 296.53 312.523 296.373 312.258 296.373 311.811 L 296.373 304.546 C 311.738 296.09 322.28 282.372 327.768 263.683 C 335.733 259.664 340.85 251.632 340.85 242.652 L 340.85 233.814 C 340.85 226.391 337.26 219.262 331.308 214.547 C 326.504 180.716 303.488 161.91 261.024 157.085 C 258.912 156.846 256.828 156.686 254.779 156.613 C 245.18 156.249 231.006 153.798 217.96 144.179 C 212.865 140.423 208.939 136.81 206.306 133.449 C 203.772 130.209 199.141 128.84 195.065 130.13 C 191.075 131.384 188.707 134.739 189.177 138.489 C 189.728 142.882 190.483 147.32 191.426 151.684 C 193.959 163.434 193.752 163.821 190.212 170.286 C 189.049 172.407 187.629 175.018 185.937 178.54 C 181.977 186.83 179.222 196.135 177.738 206.245 C 169.429 211.002 164.412 219.053 164.412 228.007 L 164.412 238.639 C 164.412 249.246 171.699 259.006 182.54 263.474 C 189.705 284.873 202.866 299.746 221.722 307.766 L 221.722 315.253 C 221.722 316.026 221.229 316.825 220.515 317.193 L 176.195 340.258 C 171.157 343.116 166.739 346.78 163.05 350.965 C 126.302 325.497 102.116 282.624 102.116 234.123 Z M 264.815 373.415 C 261.21 374.048 257.578 374.528 253.923 374.866 C 253.423 374.908 252.924 374.94 252.424 374.983 C 248.727 375.284 245.017 375.474 241.283 375.474 C 238.564 375.474 235.86 375.375 233.154 375.216 C 232.448 375.173 231.756 375.106 231.05 375.056 C 228.98 374.902 226.917 374.712 224.862 374.459 C 224.177 374.38 223.498 374.287 222.821 374.196 C 220.565 373.889 218.316 373.532 216.083 373.114 C 215.698 373.041 215.305 372.979 214.92 372.905 C 206.605 371.271 198.462 368.873 190.583 365.726 C 190.419 365.659 190.248 365.592 190.084 365.524 C 184.789 363.385 179.607 360.92 174.582 358.119 C 177.237 355.156 180.385 352.612 183.817 350.658 L 227.902 327.722 C 232.898 325.123 236.002 320.346 236.002 315.259 L 236.002 299.684 L 231.577 298.118 C 213.814 291.843 201.645 278.132 195.408 257.384 L 194.424 254.12 L 190.697 253.082 C 183.625 251.109 178.687 245.172 178.687 238.645 L 178.687 228.013 C 178.687 222.599 182.07 217.83 187.521 215.568 L 191.111 214.074 L 191.519 210.658 C 192.724 200.505 195.293 191.274 199.133 183.236 C 200.704 179.953 202.038 177.514 203.123 175.534 C 207.748 167.078 208.518 164.196 205.863 151.389 C 206.763 152.095 207.691 152.807 208.66 153.521 C 221.428 162.942 237.158 168.259 254.144 168.898 C 255.785 168.959 257.456 169.082 259.147 169.278 C 296.109 173.477 314.08 188.606 317.419 218.327 L 317.734 221.148 L 320.432 222.771 C 324.214 225.05 326.569 229.285 326.569 233.82 L 326.569 242.658 C 326.569 247.747 323.514 252.271 319.14 253.659 L 315.478 254.814 L 314.63 258.09 C 309.883 276.435 300.448 288.727 285.781 295.671 L 282.085 297.423 L 282.085 311.817 C 282.085 316.831 285.068 321.275 289.872 323.408 L 323.521 338.348 L 323.578 338.371 C 325.969 339.411 328.082 340.99 329.83 343.031 C 311.268 358.635 289.2 368.972 265.784 373.243 C 265.471 373.292 265.143 373.353 264.815 373.415 Z" style="fill: rgb(255, 215, 0);"/>
  <ellipse style="fill: none; stroke: rgb(82, 197, 168); stroke-width: 39px;" cx="259.025" cy="255.762" rx="156.897" ry="161.508" transform="matrix(0.999657, 0.026177, -0.001158, 1.000312, -10.752508, -10.507705)"/>
</svg>